<svg width="700" height="300" viewBox="0 0 700 300" xmlns="http://www.w3.org/2000/svg">
  <defs>
    <linearGradient id="pinkBar" x1="0" y1="0" x2="1" y2="0">
      <stop offset="0%" stop-color="#ff85c1"/>
      <stop offset="100%" stop-color="#ff4da6"/>
    </linearGradient>
  </defs>

  <style>
    .bg { fill: #0d1117; }
    .title { fill: #ff69b4; font-size: 22px; font-weight: 700; font-family: 'Segoe UI', sans-serif; }
    .label { fill: #ffc0cb; font-size: 15px; font-family: 'Segoe UI', sans-serif; }
    .track { fill: #1f1f2a; }
    .lvl { fill: #ffffff; font-size: 13px; opacity: 0.85; }
  </style>

  <rect class="bg" width="700" height="300" rx="20"/>

  <text x="350" y="38" text-anchor="middle" class="title">
    ⚡ XP Progress
  </text>

  <!-- Labels -->
  <text x="70" y="85" class="label">Web Development</text>
  <text x="70" y="120" class="label">Python</text>
  <text x="70" y="155" class="label">Java</text>
  <text x="70" y="190" class="label">Problem Solving</text>
  <text x="70" y="225" class="label">AI</text>

  <!-- Tracks -->
  <rect x="240" y="73" width="360" height="12" rx="6" class="track"/>
  <rect x="240" y="108" width="360" height="12" rx="6" class="track"/>
  <rect x="240" y="143" width="360" height="12" rx="6" class="track"/>
  <rect x="240" y="178" width="360" height="12" rx="6" class="track"/>
  <rect x="240" y="213" width="360" height="12" rx="6" class="track"/>

  <!-- Bars -->
  <rect x="240" y="73" width="300" height="12" rx="6" fill="url(#pinkBar)"/>
  <rect x="240" y="108" width="280" height="12" rx="6" fill="url(#pinkBar)"/>
  <rect x="240" y="143" width="250" height="12" rx="6" fill="url(#pinkBar)"/>
  <rect x="240" y="178" width="320" height="12" rx="6" fill="url(#pinkBar)"/>
  <rect x="240" y="213" width="210" height="12" rx="6" fill="url(#pinkBar)"/>

  <!-- Levels -->
  <text x="620" y="82" class="lvl">LVL 13</text>
  <text x="620" y="117" class="lvl">LVL 12</text>
  <text x="620" y="152" class="lvl">LVL 10</text>
  <text x="620" y="187" class="lvl">LVL 14</text>
  <text x="620" y="222" class="lvl">LVL 9</text>
</svg>
